<svg id="Your_design" xmlns="http://www.w3.org/2000/svg" viewBox="0 0 820.86 200"><g id="WORDMARK"><g id="SAFETY"><path d="m365.93,85.72c-7.14-6.69-17.38-11.52-30.74-14.49l-11.67-2.64c-6.12-1.33-10.99-3.11-14.61-5.4-3.62-2.27-5.36-5.4-5.24-9.41.06-3.7,1.66-6.77,4.83-9.17,3.19-2.41,7.94-3.6,14.31-3.6s11.32,1.35,14.8,4.05c3.46,2.72,5.4,6.51,5.85,11.36h31.35c-.08-8.47-2.27-15.9-6.55-22.27-4.28-6.39-10.29-11.34-18.03-14.9-7.74-3.54-16.86-5.32-27.36-5.32s-19.48,1.76-27.49,5.26c-8.02,3.52-14.29,8.41-18.83,14.74-4.54,6.3-6.79,13.67-6.75,22.1-.04,10.27,3.32,18.42,10.09,24.44,6.77,6.04,16,10.4,27.69,13.08l14.16,3.32c7.45,1.72,12.93,3.7,16.41,5.98s5.26,5.32,5.3,9.11c-.04,4.15-1.92,7.53-5.63,10.13s-8.84,3.89-15.43,3.89c-7.22,0-13.08-1.66-17.52-4.99-4.46-3.32-6.88-8.25-7.22-14.78h-31.37c.23,15.84,5.44,27.61,15.66,35.3,10.21,7.7,23.84,11.54,40.87,11.54s30.09-3.62,39.56-10.85c9.5-7.25,14.26-17.29,14.31-30.19-.04-10.81-3.62-19.57-10.74-26.28Z" fill="#0b0621"></path><path d="m506.91,49.02c0-2.93.68-5.26,2.08-6.93,1.42-1.69,3.96-2.56,7.59-2.56,1.52,0,3.1.17,4.73.45,1.64.29,3.02.62,4.2.97l5.01-23.88c-1.82-.54-4.71-1.15-8.65-1.84-3.92-.68-8.05-1.03-12.39-1.03-10.13,0-18.34,2.93-24.65,8.78-6.29,5.84-9.45,14.68-9.45,26.56v103.08h31.52v-74.66h19.91v-23.23h-19.91v-5.73Z" fill="#0b0621"></path><path d="m636.32,107.84v-8.06c0-11.17-2.1-20.6-6.31-28.31-4.21-7.73-10.03-13.58-17.48-17.57-7.44-3.99-15.98-5.97-25.64-5.97-10.27,0-19.19,2.19-26.77,6.57-7.56,4.4-13.44,10.51-17.61,18.39-4.15,7.87-6.25,17.06-6.25,27.55,0,16.26,4.6,29.07,13.79,38.35,9.2,9.31,21.8,13.97,37.84,13.97,13.37,0,24.26-2.99,32.69-8.96,8.4-5.99,13.54-13.95,15.41-23.91l-29.83-.86c-1.23,3.33-3.43,5.91-6.57,7.69-3.14,1.8-6.84,2.68-11.09,2.68-6.25,0-11.18-1.88-14.79-5.69-3.6-3.78-5.4-8.8-5.4-15.01v-.86h68.02Zm-61.84-30.95c3.58-3.4,8.08-5.09,13.46-5.09s9.74,1.66,13.19,4.99c3.46,3.33,5.22,7.59,5.26,12.8h-37.64c.23-5.07,2.13-9.31,5.73-12.7Z" fill="#0b0621"></path><path d="m694.6,128.93c-1.36.23-2.63.38-3.83.38-2.55,0-4.51-.63-5.92-1.86-1.4-1.23-2.07-3.39-2.07-6.46v-47.98h26.36l-7.96-23.23h-18.4v-24.89h-31.52v99.76c-.1,10.5,2.95,18.34,9.11,23.53,6.16,5.19,14.81,7.51,25.94,6.96,3.83-.23,7.1-.65,9.79-1.32,2.73-.65,4.85-1.21,6.34-1.65l-4.79-23.86c-.68.17-1.69.38-3.05.63Z" fill="#0b0621"></path><path d="m786.56,49.77l-19.12,73h-1.07l-18.85-73h-34.09l36.36,106.04-3.03,7.66c-1.79,3.65-4.33,5.69-7.68,6.18-2.16.31-4.63.14-7.39-.41l-11.89,23.4-.02.08c1.9.76,4.43,1.52,7.56,2.35,3.11.78,6.92,1.17,11.35,1.17,11.45,0,20.58-2.88,27.38-8.65,6.78-5.77,11.62-12.81,14.44-21.11l40.35-116.71h-34.3Z" fill="#0b0621"></path><polygon points="406.96 46.42 387.77 65.61 422.65 100.48 388.84 134.29 408.03 153.46 460.99 100.46 406.96 46.42" fill="#3f66b0"></polygon><rect x="629.68" y="4.98" width="21.57" height="21.57" fill="#3f66b0"></rect></g></g><g id="LOGO"><path d="m171.23,123.08c2.61.01,5.22-.01,7.84-.1-13.78,33.88-37.79,57.14-67.03,67.82h-.01c-38.86-14.2-69.79-52.36-78.66-105.9,9.13,5.99,18.7,11.3,28.71,15.76,5.71,2.64,11.62,4.88,17.57,6.96,5.92,2.04,12.17,3.77,18.07,5.29,23.95,6.01,48.54,9.99,73.52,10.17Z" fill="#3f66b0"></path><path d="m176.74,38.16h12.31c-.23-4.54-.6-9.14-1.11-13.87l-16.18-3.32v10.56h-21.57v-15.98l-11.61-2.55v-6.36h-6.64v6.64h6.64v8.3h-13.27v-10.74l-13.9-2.97L32.64,24.06c-.81,6.25-1.31,12.35-1.61,18.3-.25,5.17-.3,10.23-.18,15.18,22.56,9.64,42.72,21.25,45.14,24.46.65.87,1.17,2.32,1.38,3.96,2.81,1.04,5.64,2.07,8.49,2.99,5.54,1.86,10.94,3.57,16.74,5.08,5.73,1.61,11.45,3.11,17.24,4.49,5.75,1.43,11.52,2.8,17.31,3.98,11.59,2.48,23.25,4.55,34.95,6.02,3.88.48,7.73.88,11.59,1.17.39-1.31.78-2.65,1.17-3.98,3.8-13.68,6.14-28.7,6.71-44.32h-14.83v-23.23Zm-94.57,6.64h-8.3v-8.3h-6.64v-6.64h6.64v6.64h8.3v8.3Zm8.3-14.93h-11.61v-11.61h11.61v11.61Zm14.93,36.5h-13.27v-13.27h13.27v13.27Zm13.27-28.21h-9.95v-9.95h9.95v9.95Zm13.27,34.84h-9.95v-9.95h9.95v9.95Zm3.32-36.5h6.64v6.64h-6.64v-6.64Zm18.25,49.77h-11.61s0,6.64,0,6.64h-6.64v-6.64h6.64s0-11.61,0-11.61h11.61v11.61Zm11.61-21.57h-14.93v-14.93h14.93v14.93Zm14.93,16.59v11.61h-13.27v-11.61h13.27Z" fill="#3f66b0"></path><polygon points="173.43 8.3 180.06 8.3 180.06 0 171.77 0 171.77 8.3 158.49 8.3 158.49 23.23 173.43 23.23 173.43 8.3" fill="#3f66b0"></polygon><rect x="181.72" y="11.61" width="6.64" height="6.64" fill="#3f66b0"></rect><polygon points="206.61 39.82 206.61 46.46 191.68 46.46 191.68 61.39 206.61 61.39 206.61 46.46 213.24 46.46 213.24 39.82 206.61 39.82" fill="#3f66b0"></polygon><rect x="199.97" y="26.55" width="6.64" height="6.64" fill="#3f66b0"></rect><rect x="194.99" y="3.32" width="13.27" height="13.27" fill="#3f66b0"></rect><rect x="87.15" width="9.95" height="9.95" fill="#3f66b0"></rect><path d="m221.22,104.37c-.94-2.39-2.3-3.89-3.65-5.28-1.36-1.35-2.78-2.52-4.32-3.6v-10.88h-14.93v14.93h12.43c.95.62,1.84,1.79,2.6,2.98.82,1.31,1.51,2.73,1.6,3.7.06.48-2.59,1.22-4.04,1.37-1.49.15-3.07.21-4.7.22-6.49-.03-13.24-.84-19.92-1.89-.48-.07-.95-.15-1.43-.22-6.2-.98-12.41-2.3-18.58-3.68-13.29-3.06-26.45-6.74-39.47-10.93-6.53-2.04-12.99-4.29-19.45-6.58-6.43-2.25-12.63-4.76-18.83-7.4-6.19-2.65-12.24-5.58-18.21-8.65-2.98-1.54-5.92-3.18-8.81-4.85-2.92-1.66-5.79-3.37-8.62-5.16-7.65-4.89-15.08-10.2-21.85-16.09-3.18-2.77-6.2-5.67-9.05-8.71-4.37-4.79-8.4-9.93-10.92-15.45-.3-.69-.64-1.39-.86-2.07l-.39-1.04c-.1-.31-.18-.6-.25-.88-.13-.55-.19-1.04-.22-1.45,0-.4.03-.7.09-.94.07-.48.48-1.04,1.49-1.61.97-.55,2.36-.95,3.83-1.22,2.98-.51,6.34-.58,9.68-.4,3.37.16,6.78.52,10.2,1.01,6.83.95,13.69,2.3,20.52,3.89-6.31-3.1-12.84-5.77-19.58-7.98-3.38-1.07-6.81-2.07-10.36-2.8-3.56-.72-7.22-1.3-11.18-1.18-2,.09-4.07.31-6.32,1.12-1.12.42-2.27.98-3.38,1.83-1.1.82-2.13,1.98-2.85,3.3-.73,1.31-1.13,2.73-1.33,4.06-.18,1.33-.16,2.58-.04,3.76.06.58.15,1.16.24,1.69l.28,1.49c.18,1.01.46,1.95.72,2.91,2.24,7.63,6.16,14.21,10.56,20.25,5.64,7.61,12.14,14.32,19.15,20.37,2.46,2.12,4.97,4.15,7.53,6.11,1.66,1.28,3.36,2.54,5.06,3.76,5.91,4.25,12.05,8.1,18.37,11.63,6.29,3.56,12.79,6.74,19.4,9.66,6.58,2.95,13.39,5.46,20.13,7.78,6.73,2.31,13.54,4.34,20.38,6.28,13.72,3.74,27.65,6.8,41.83,8.68,7.07.97,14.21,1.58,21.41,1.88,7.2.19,14.43.13,21.86-1,1.85-.28,3.73-.67,5.65-1.22,1.94-.61,3.88-1.18,6.16-2.83.57-.45,1.18-.98,1.74-1.8.52-.78.84-1.55,1.03-2.4.37-1.71.07-3.28-.37-4.46Z" fill="#0b0621"></path></g></svg>